<svg width="145" height="35" viewBox="0 0 145 35" fill="none" xmlns="http://www.w3.org/2000/svg">
<g clip-path="url(#clip0_9_69)">
<path d="M0 34.9091V0H6.32386V16.0398H6.75L20.3693 0H28.0909L14.5909 15.6648L28.2102 34.9091H20.608L10.1932 19.9432L6.32386 24.5114V34.9091H0Z" fill="black"/>
<path d="M34.9716 34.9091C33.3125 34.9091 31.8182 34.6136 30.4886 34.0227C29.1705 33.4205 28.125 32.5341 27.3523 31.3636C26.5909 30.1932 26.2102 28.75 26.2102 27.0341C26.2102 25.5568 26.483 24.3352 27.0284 23.3693C27.5739 22.4034 28.3182 21.6307 29.2614 21.0511C30.2045 20.4716 31.267 20.0341 32.4489 19.7386C33.642 19.4318 34.875 19.2102 36.1477 19.0739C37.6818 18.9148 38.9261 18.7727 39.8807 18.6477C40.8352 18.5114 41.5284 18.3068 41.9602 18.0341C42.4034 17.75 42.625 17.3125 42.625 16.7216V16.6193C42.625 15.3352 42.2443 14.3409 41.483 13.6364C40.7216 12.9318 39.625 12.5795 38.1932 12.5795C36.6818 12.5795 35.483 12.9091 34.5966 13.5682C33.7216 14.2273 33.1307 15.0057 32.8239 15.9034L27.0625 15.0852C27.517 13.4943 28.267 12.1648 29.3125 11.0966C30.358 10.017 31.6364 9.21023 33.1477 8.67614C34.6591 8.13068 36.3295 7.85796 38.1591 7.85796C39.4205 7.85796 40.6761 8.00568 41.9261 8.30114C43.1761 8.59659 44.3182 9.08523 45.3523 9.76705C46.3864 10.4375 47.2159 11.3523 47.8409 12.5114C48.4773 13.6705 48.7955 15.1193 48.7955 16.858V34.3807H42.8636V30.7841H42.6591C42.2841 31.5114 41.7557 32.1932 41.0739 32.8295C40.4034 33.4545 39.5568 33.9602 38.5341 34.3466C37.5227 34.7216 36.3352 34.9091 34.9716 34.9091ZM36.5739 30.375C37.8125 30.375 38.8864 30.1307 39.7955 29.642C40.7045 29.142 41.4034 28.483 41.892 27.6648C42.392 26.8466 42.642 25.9545 42.642 24.9886V21.9034C42.4489 22.0625 42.1193 22.2102 41.6534 22.3466C41.1989 22.483 40.6875 22.6023 40.1193 22.7045C39.5511 22.8068 38.9886 22.8977 38.4318 22.9773C37.875 23.0568 37.392 23.125 36.983 23.1818C36.0625 23.3068 35.2386 23.5114 34.5114 23.7955C33.7841 24.0795 33.2102 24.4773 32.7898 24.9886C32.3693 25.4886 32.1591 26.1364 32.1591 26.9318C32.1591 28.0682 32.5739 28.9261 33.4034 29.5057C34.233 30.0852 35.2898 30.375 36.5739 30.375Z" fill="black"/>
<path d="M56.9659 19.5682V34.9091H50.7955V8.72728H56.6932V13.1761H57C57.6023 11.7102 58.5625 10.5455 59.8807 9.68182C61.2102 8.81819 62.8523 8.38637 64.8068 8.38637C66.6136 8.38637 68.1875 8.77273 69.5284 9.54546C70.8807 10.3182 71.9261 11.4375 72.6648 12.9034C73.4148 14.3693 73.7841 16.1477 73.7727 18.2386V34.9091H67.6023V19.1932C67.6023 17.4432 67.1477 16.0739 66.2386 15.0852C65.3409 14.0966 64.0966 13.6023 62.5057 13.6023C61.4261 13.6023 60.4659 13.8409 59.625 14.3182C58.7955 14.7841 58.142 15.4602 57.6648 16.3466C57.1989 17.233 56.9659 18.3068 56.9659 19.5682Z" fill="black"/>
<path d="M88.3184 34.9091C85.7616 34.9091 83.5457 34.3466 81.6707 33.2216C79.7957 32.0966 78.3412 30.5227 77.3071 28.5C76.2844 26.4773 75.773 24.1136 75.773 21.4091C75.773 18.7045 76.2844 16.3352 77.3071 14.3011C78.3412 12.267 79.7957 10.6875 81.6707 9.5625C83.5457 8.4375 85.7616 7.875 88.3184 7.875C90.8753 7.875 93.0912 8.4375 94.9662 9.5625C96.8412 10.6875 98.29 12.267 99.3128 14.3011C100.347 16.3352 100.864 18.7045 100.864 21.4091C100.864 24.1136 100.347 26.4773 99.3128 28.5C98.29 30.5227 96.8412 32.0966 94.9662 33.2216C93.0912 34.3466 90.8753 34.9091 88.3184 34.9091ZM88.3525 29.9659C89.7389 29.9659 90.898 29.5852 91.8298 28.8239C92.7616 28.0511 93.4548 27.017 93.9094 25.7216C94.3753 24.4261 94.6082 22.983 94.6082 21.392C94.6082 19.7898 94.3753 18.3409 93.9094 17.0455C93.4548 15.7386 92.7616 14.6989 91.8298 13.9261C90.898 13.1534 89.7389 12.767 88.3525 12.767C86.9321 12.767 85.7503 13.1534 84.8071 13.9261C83.8753 14.6989 83.1764 15.7386 82.7105 17.0455C82.2559 18.3409 82.0287 19.7898 82.0287 21.392C82.0287 22.983 82.2559 24.4261 82.7105 25.7216C83.1764 27.017 83.8753 28.0511 84.8071 28.8239C85.7503 29.5852 86.9321 29.9659 88.3525 29.9659Z" fill="#BF2020"/>
<path d="M107.318 34.9091C104.762 34.9091 102.546 34.3466 100.671 33.2216C98.7957 32.0966 97.3412 30.5227 96.3071 28.5C95.2844 26.4773 94.773 24.1136 94.773 21.4091C94.773 18.7045 95.2844 16.3352 96.3071 14.3011C97.3412 12.267 98.7957 10.6875 100.671 9.5625C102.546 8.4375 104.762 7.875 107.318 7.875C109.875 7.875 112.091 8.4375 113.966 9.5625C115.841 10.6875 117.29 12.267 118.313 14.3011C119.347 16.3352 119.864 18.7045 119.864 21.4091C119.864 24.1136 119.347 26.4773 118.313 28.5C117.29 30.5227 115.841 32.0966 113.966 33.2216C112.091 34.3466 109.875 34.9091 107.318 34.9091ZM107.353 29.9659C108.739 29.9659 109.898 29.5852 110.83 28.8239C111.762 28.0511 112.455 27.017 112.909 25.7216C113.375 24.4261 113.608 22.983 113.608 21.392C113.608 19.7898 113.375 18.3409 112.909 17.0455C112.455 15.7386 111.762 14.6989 110.83 13.9261C109.898 13.1534 108.739 12.767 107.353 12.767C105.932 12.767 104.75 13.1534 103.807 13.9261C102.875 14.6989 102.176 15.7386 101.71 17.0455C101.256 18.3409 101.029 19.7898 101.029 21.392C101.029 22.983 101.256 24.4261 101.71 25.7216C102.176 27.017 102.875 28.0511 103.807 28.8239C104.75 29.5852 105.932 29.9659 107.353 29.9659Z" fill="#BF2020"/>
<path d="M128.034 19.5682V34.9091H121.864V8.72728H127.762V13.1761H128.068C128.671 11.7102 129.631 10.5455 130.949 9.68182C132.279 8.81819 133.921 8.38637 135.875 8.38637C137.682 8.38637 139.256 8.77273 140.597 9.54546C141.949 10.3182 142.995 11.4375 143.733 12.9034C144.483 14.3693 144.853 16.1477 144.841 18.2386V34.9091H138.671V19.1932C138.671 17.4432 138.216 16.0739 137.307 15.0852C136.409 14.0966 135.165 13.6023 133.574 13.6023C132.495 13.6023 131.534 13.8409 130.693 14.3182C129.864 14.7841 129.21 15.4602 128.733 16.3466C128.267 17.233 128.034 18.3068 128.034 19.5682Z" fill="black"/>
</g>
<defs>
<clipPath id="clip0_9_69">
<rect width="145" height="35" fill="white"/>
</clipPath>
</defs>
</svg>
